M48
; DRILL file {KiCad (6.0.10)} date Thu Feb  2 10:32:32 2023
; FORMAT={-:-/ absolute / metric / decimal}
; #@! TF.CreationDate,2023-02-02T10:32:32+09:00
; #@! TF.GenerationSoftware,Kicad,Pcbnew,(6.0.10)
; #@! TF.FileFunction,Plated,1,2,PTH
FMAT,2
METRIC
; #@! TA.AperFunction,Plated,PTH,ViaDrill
T1C0.400
; #@! TA.AperFunction,Plated,PTH,ComponentDrill
T2C0.800
; #@! TA.AperFunction,Plated,PTH,ComponentDrill
T3C0.813
; #@! TA.AperFunction,Plated,PTH,ComponentDrill
T4C1.000
; #@! TA.AperFunction,Plated,PTH,ComponentDrill
T5C1.300
; #@! TA.AperFunction,Plated,PTH,ComponentDrill
T6C2.000
%
G90
G05
T1
X32.54Y-47.953
X33.388Y-66.65
X35.547Y-96.902
X36.289Y-23.784
X36.879Y-86.795
X42.656Y-99.708
X49.277Y-81.359
X50.476Y-48.343
X51.761Y-46.929
X52.215Y-66.65
X56.387Y-46.011
X56.723Y-81.264
X56.749Y-22.037
X56.749Y-83.029
X57.925Y-81.263
X58.071Y-61.929
X58.41Y-46.861
X58.415Y-83.014
X60.4Y-86.795
X60.997Y-61.273
X61.286Y-62.652
X63.008Y-63.629
X63.2Y-46.946
X63.584Y-61.273
X64.3Y-44.458
X64.364Y-47.22
X66.454Y-47.059
X66.69Y-31.852
X67.48Y-85.513
X67.494Y-47.942
X68.025Y-80.566
X69.538Y-80.503
X71.007Y-67.007
X72.316Y-83.348
X72.442Y-61.273
X72.842Y-49.905
X73.859Y-47.902
X75.662Y-62.464
X76.261Y-42.512
X76.73Y-49.905
X78.147Y-80.542
X79.017Y-67.495
X83.582Y-53.681
X85.643Y-42.636
X85.957Y-87.221
X86.652Y-53.681
X86.789Y-82.49
X87.64Y-51.143
X88.304Y-44.056
X89.525Y-61.61
X89.803Y-67.517
X89.904Y-30.575
X89.908Y-70.701
X96.301Y-88.317
X97.692Y-87.655
X98.889Y-86.792
X102.07Y-45.438
X102.11Y-66.208
X102.182Y-89.143
X102.341Y-88.006
X102.641Y-47.262
X102.823Y-44.056
X104.469Y-90.672
X104.754Y-50.548
X105.227Y-45.047
X108.78Y-69.885
X109.138Y-87.281
X109.49Y-70.61
X112.389Y-91.249
X113.215Y-50.665
X113.849Y-81.742
X115.179Y-48.935
X116.441Y-68.455
X117.817Y-88.724
X118.326Y-65.191
X123.933Y-50.025
X124.556Y-50.846
X124.613Y-89.78
X125.534Y-87.87
X129.182Y-86.1
X130.909Y-70.61
X130.952Y-54.77
X137.971Y-53.536
X139.708Y-51.799
X140.323Y-54.77
X144.187Y-87.931
X145.017Y-86.022
X146.094Y-88.016
X151.053Y-89.784
X157.4Y-34.2
X160.6Y-29.5
X162.453Y-70.61
X164.592Y-26.369
X164.614Y-51.387
X164.636Y-53.674
X164.658Y-71.731
X168.992Y-89.044
X169.113Y-30.575
X175.369Y-61.794
X175.732Y-66.54
X176.866Y-55.337
X179.4Y-35.8
X180.948Y-33.047
X195.655Y-64.294
X197.956Y-46.77
X198.927Y-102.699
X199.825Y-89.044
X200.102Y-83.768
X201.803Y-61.794
X203.297Y-73.971
X204.247Y-46.522
X206.077Y-89.784
X206.392Y-85.072
X208.544Y-84.075
X208.691Y-71.789
X208.797Y-86.409
X210.892Y-69.795
X211.248Y-53.674
X211.682Y-51.972
X211.957Y-70.689
X212.601Y-82.499
X213.419Y-60.109
X216.577Y-65.753
X217.025Y-84.075
X220.261Y-73.971
X220.578Y-58.73
X220.822Y-71.789
X222.091Y-45.608
X222.462Y-89.435
X222.825Y-49.717
X223.811Y-26.074
X226.198Y-51.972
X227.072Y-87.566
X229.858Y-82.981
X230.757Y-69.725
X234.997Y-47.686
X237.62Y-45.022
X237.645Y-87.036
X238.101Y-47.686
X238.426Y-63.443
X240.157Y-63.748
X241.217Y-88.234
X241.692Y-82.029
X241.805Y-64.337
X242.141Y-61.982
X242.644Y-23.09
X244.446Y-43.715
X245.09Y-51.539
X246.34Y-67.504
X250.0Y-68.308
X252.452Y-61.648
X254.509Y-43.718
X255.434Y-81.058
X257.33Y-81.917
X257.517Y-86.024
X258.121Y-48.043
X260.186Y-61.013
X260.229Y-51.539
X260.371Y-47.724
X260.495Y-87.265
X262.42Y-63.247
X263.471Y-42.717
X264.974Y-85.462
X265.676Y-82.746
X265.893Y-66.507
X269.019Y-67.75
X272.94Y-61.601
X273.164Y-33.047
X275.202Y-43.367
X275.703Y-85.229
X278.195Y-46.734
X278.316Y-87.749
X280.428Y-50.81
X281.261Y-66.539
X282.402Y-61.601
X282.72Y-49.977
X284.319Y-78.946
X284.523Y-66.321
X286.39Y-49.977
X287.514Y-79.895
X287.622Y-51.955
X287.945Y-67.75
X294.646Y-66.321
X299.049Y-54.77
X302.987Y-50.81
X305.248Y-85.064
X306.95Y-67.75
T3
X154.432Y-24.936
X154.432Y-40.156
X156.972Y-24.936
X156.972Y-40.156
X159.512Y-24.936
X159.512Y-40.156
X162.052Y-24.936
X162.052Y-40.156
X164.592Y-24.936
X164.592Y-40.156
X167.132Y-24.936
X167.132Y-40.156
X169.672Y-24.936
X169.672Y-40.156
X172.212Y-24.936
X172.212Y-40.156
X174.752Y-24.936
X174.752Y-40.156
X177.292Y-24.936
X177.292Y-40.156
X179.832Y-24.936
X179.832Y-40.156
X182.372Y-24.936
X182.372Y-40.156
X184.912Y-24.936
X184.912Y-40.156
T4
X25.837Y-99.425
X25.837Y-101.925
X25.837Y-104.425
X40.337Y-99.425
X40.337Y-104.425
X163.95Y-61.794
X163.95Y-64.294
X163.95Y-66.794
X178.45Y-61.794
X178.45Y-66.794
X302.062Y-99.425
X302.062Y-101.925
X302.062Y-104.425
X316.562Y-99.425
X316.562Y-104.425
T5
X190.5Y-29.25
X190.5Y-35.75
T2
G00X168.95Y-19.35
M15
G01X168.95Y-19.35
M16
G05
G00X171.45Y-19.35
M15
G01X171.45Y-19.35
M16
G05
G00X173.95Y-19.35
M15
G01X173.95Y-19.35
M16
G05
T6
G00X32.938Y-96.325
M15
G01X33.737Y-96.325
M16
G05
G00X32.938Y-107.525
M15
G01X33.737Y-107.525
M16
G05
G00X171.05Y-58.694
M15
G01X171.85Y-58.694
M16
G05
G00X171.05Y-69.894
M15
G01X171.85Y-69.894
M16
G05
G00X309.162Y-96.325
M15
G01X309.962Y-96.325
M16
G05
G00X309.162Y-107.525
M15
G01X309.962Y-107.525
M16
G05
T0
M30
