G04 #@! TF.GenerationSoftware,KiCad,Pcbnew,(6.0.10)*
G04 #@! TF.CreationDate,2023-02-02T10:31:19+09:00*
G04 #@! TF.ProjectId,GT40,47543430-2e6b-4696-9361-645f70636258,rev?*
G04 #@! TF.SameCoordinates,Original*
G04 #@! TF.FileFunction,Profile,NP*
%FSLAX46Y46*%
G04 Gerber Fmt 4.6, Leading zero omitted, Abs format (unit mm)*
G04 Created by KiCad (PCBNEW (6.0.10)) date 2023-02-02 10:31:19*
%MOMM*%
%LPD*%
G01*
G04 APERTURE LIST*
G04 #@! TA.AperFunction,Profile*
%ADD10C,0.100000*%
G04 #@! TD*
G04 #@! TA.AperFunction,Profile*
%ADD11C,0.120000*%
G04 #@! TD*
G04 APERTURE END LIST*
D10*
X19275000Y-113050000D02*
G75*
G03*
X22275000Y-116050000I3000000J0D01*
G01*
X22275000Y-17250000D02*
G75*
G03*
X19275000Y-20250000I0J-3000000D01*
G01*
X320625000Y-116050000D02*
G75*
G03*
X323625000Y-113050000I0J3000000D01*
G01*
X323625000Y-20250000D02*
G75*
G03*
X320625000Y-17250000I-3000000J0D01*
G01*
X19275000Y-20250000D02*
X19275000Y-113050000D01*
X320625000Y-17250000D02*
X22275000Y-17250000D01*
X323625000Y-20250000D02*
X323625000Y-113050000D01*
X22275000Y-116050000D02*
X320625000Y-116050000D01*
D11*
X53224336Y-61901705D02*
X56719539Y-62084881D01*
X53056861Y-65097319D02*
X53224336Y-61901705D01*
X56552064Y-65280495D02*
X53056861Y-65097319D01*
X56719539Y-62084881D02*
X56552064Y-65280495D01*
X289650964Y-61836505D02*
X289818439Y-65032119D01*
X286155761Y-62019681D02*
X289650964Y-61836505D01*
X289818439Y-65032119D02*
X286323236Y-65215295D01*
X286323236Y-65215295D02*
X286155761Y-62019681D01*
X122153664Y-87790295D02*
X118658461Y-87607119D01*
X122321139Y-84594681D02*
X122153664Y-87790295D01*
X118825936Y-84411505D02*
X122321139Y-84594681D01*
X118658461Y-87607119D02*
X118825936Y-84411505D01*
X110316536Y-64896105D02*
X113811739Y-65079281D01*
X113644264Y-68274895D02*
X110149061Y-68091719D01*
X113811739Y-65079281D02*
X113644264Y-68274895D01*
X110149061Y-68091719D02*
X110316536Y-64896105D01*
X71837564Y-47005295D02*
X68342361Y-46822119D01*
X68509836Y-43626505D02*
X72005039Y-43809681D01*
X72005039Y-43809681D02*
X71837564Y-47005295D01*
X68342361Y-46822119D02*
X68509836Y-43626505D01*
X251603064Y-63830105D02*
X251770539Y-67025719D01*
X248275336Y-67208895D02*
X248107861Y-64013281D01*
X251770539Y-67025719D02*
X248275336Y-67208895D01*
X248107861Y-64013281D02*
X251603064Y-63830105D01*
X245998539Y-48251519D02*
X242503336Y-48434695D01*
X242503336Y-48434695D02*
X242335861Y-45239081D01*
X242335861Y-45239081D02*
X245831064Y-45055905D01*
X245831064Y-45055905D02*
X245998539Y-48251519D01*
X52846264Y-46008795D02*
X49351061Y-45825619D01*
X53013739Y-42813181D02*
X52846264Y-46008795D01*
X49351061Y-45825619D02*
X49518536Y-42630005D01*
X49518536Y-42630005D02*
X53013739Y-42813181D01*
X239595061Y-83535381D02*
X243090264Y-83352205D01*
X243257739Y-86547819D02*
X239762536Y-86730995D01*
X243090264Y-83352205D02*
X243257739Y-86547819D01*
X239762536Y-86730995D02*
X239595061Y-83535381D01*
X201555561Y-85537181D02*
X205050764Y-85354005D01*
X201723036Y-88732795D02*
X201555561Y-85537181D01*
X205218239Y-88549619D02*
X201723036Y-88732795D01*
X205050764Y-85354005D02*
X205218239Y-88549619D01*
X229087761Y-65009781D02*
X232582964Y-64826605D01*
X232750439Y-68022219D02*
X229255236Y-68205395D01*
X229255236Y-68205395D02*
X229087761Y-65009781D01*
X232582964Y-64826605D02*
X232750439Y-68022219D01*
X210060061Y-66007481D02*
X213555264Y-65824305D01*
X213722739Y-69019919D02*
X210227536Y-69203095D01*
X210227536Y-69203095D02*
X210060061Y-66007481D01*
X213555264Y-65824305D02*
X213722739Y-69019919D01*
X72268836Y-62907005D02*
X75764039Y-63090181D01*
X75764039Y-63090181D02*
X75596564Y-66285795D01*
X75596564Y-66285795D02*
X72101361Y-66102619D01*
X72101361Y-66102619D02*
X72268836Y-62907005D01*
X99640161Y-86621419D02*
X99807636Y-83425805D01*
X99807636Y-83425805D02*
X103302839Y-83608981D01*
X103135364Y-86804595D02*
X99640161Y-86621419D01*
X103302839Y-83608981D02*
X103135364Y-86804595D01*
X264848764Y-44057405D02*
X265016239Y-47253019D01*
X261353561Y-44240581D02*
X264848764Y-44057405D01*
X261521036Y-47436195D02*
X261353561Y-44240581D01*
X265016239Y-47253019D02*
X261521036Y-47436195D01*
X91028939Y-44814181D02*
X90861464Y-48009795D01*
X90861464Y-48009795D02*
X87366261Y-47826619D01*
X87533736Y-44631005D02*
X91028939Y-44814181D01*
X87366261Y-47826619D02*
X87533736Y-44631005D01*
X270598464Y-62835405D02*
X270765939Y-66031019D01*
X267103261Y-63018581D02*
X270598464Y-62835405D01*
X270765939Y-66031019D02*
X267270736Y-66214195D01*
X267270736Y-66214195D02*
X267103261Y-63018581D01*
X220544261Y-84534381D02*
X224039464Y-84351205D01*
X224206939Y-87546819D02*
X220711736Y-87729995D01*
X224039464Y-84351205D02*
X224206939Y-87546819D01*
X220711736Y-87729995D02*
X220544261Y-84534381D01*
X128920464Y-49993095D02*
X125425261Y-49809919D01*
X125592736Y-46614305D02*
X129087939Y-46797481D01*
X125425261Y-49809919D02*
X125592736Y-46614305D01*
X129087939Y-46797481D02*
X128920464Y-49993095D01*
X94787839Y-64081481D02*
X94620364Y-67277095D01*
X94620364Y-67277095D02*
X91125161Y-67093919D01*
X91125161Y-67093919D02*
X91292636Y-63898305D01*
X91292636Y-63898305D02*
X94787839Y-64081481D01*
X277640861Y-81543081D02*
X281136064Y-81359905D01*
X281136064Y-81359905D02*
X281303539Y-84555519D01*
X281303539Y-84555519D02*
X277808336Y-84738695D01*
X277808336Y-84738695D02*
X277640861Y-81543081D01*
X262112164Y-82357605D02*
X262279639Y-85553219D01*
X258784436Y-85736395D02*
X258616961Y-82540781D01*
X258616961Y-82540781D02*
X262112164Y-82357605D01*
X262279639Y-85553219D02*
X258784436Y-85736395D01*
X284037239Y-46258819D02*
X280542036Y-46441995D01*
X280542036Y-46441995D02*
X280374561Y-43246381D01*
X283869764Y-43063205D02*
X284037239Y-46258819D01*
X280374561Y-43246381D02*
X283869764Y-43063205D01*
X129173561Y-69089419D02*
X129341036Y-65893805D01*
X132836239Y-66076981D02*
X132668764Y-69272595D01*
X132668764Y-69272595D02*
X129173561Y-69089419D01*
X129341036Y-65893805D02*
X132836239Y-66076981D01*
X80819236Y-82422705D02*
X84314439Y-82605881D01*
X80651761Y-85618319D02*
X80819236Y-82422705D01*
X84146964Y-85801495D02*
X80651761Y-85618319D01*
X84314439Y-82605881D02*
X84146964Y-85801495D01*
X61592361Y-84634919D02*
X61759836Y-81439305D01*
X65087564Y-84818095D02*
X61592361Y-84634919D01*
X61759836Y-81439305D02*
X65255039Y-81622481D01*
X65255039Y-81622481D02*
X65087564Y-84818095D01*
X137868536Y-85438605D02*
X141363739Y-85621781D01*
X141363739Y-85621781D02*
X141196264Y-88817395D01*
X141196264Y-88817395D02*
X137701061Y-88634219D01*
X137701061Y-88634219D02*
X137868536Y-85438605D01*
X207792664Y-47045005D02*
X207960139Y-50240619D01*
X207960139Y-50240619D02*
X204464936Y-50423795D01*
X204464936Y-50423795D02*
X204297461Y-47228181D01*
X204297461Y-47228181D02*
X207792664Y-47045005D01*
X106556736Y-45625005D02*
X110051939Y-45808181D01*
X106389261Y-48820619D02*
X106556736Y-45625005D01*
X109884464Y-49003795D02*
X106389261Y-48820619D01*
X110051939Y-45808181D02*
X109884464Y-49003795D01*
X223500936Y-49428695D02*
X223333461Y-46233081D01*
X223333461Y-46233081D02*
X226828664Y-46049905D01*
X226996139Y-49245519D02*
X223500936Y-49428695D01*
X226828664Y-46049905D02*
X226996139Y-49245519D01*
M02*
