G04 #@! TF.GenerationSoftware,KiCad,Pcbnew,(6.0.10)*
G04 #@! TF.CreationDate,2023-02-02T10:31:19+09:00*
G04 #@! TF.ProjectId,GT40,47543430-2e6b-4696-9361-645f70636258,rev?*
G04 #@! TF.SameCoordinates,Original*
G04 #@! TF.FileFunction,Soldermask,Top*
G04 #@! TF.FilePolarity,Negative*
%FSLAX46Y46*%
G04 Gerber Fmt 4.6, Leading zero omitted, Abs format (unit mm)*
G04 Created by KiCad (PCBNEW (6.0.10)) date 2023-02-02 10:31:19*
%MOMM*%
%LPD*%
G01*
G04 APERTURE LIST*
%ADD10C,2.000000*%
%ADD11R,3.200000X2.500000*%
%ADD12C,4.000000*%
%ADD13C,3.000000*%
%ADD14O,1.500000X1.500000*%
%ADD15C,1.524000*%
G04 APERTURE END LIST*
D10*
X25837500Y-99425000D03*
X25837500Y-104425000D03*
X25837500Y-101925000D03*
D11*
X33337500Y-107525000D03*
X33337500Y-96325000D03*
D10*
X40337500Y-104425000D03*
X40337500Y-99425000D03*
D12*
X206327600Y-100300500D03*
D13*
X202389888Y-97963381D03*
D10*
X201254562Y-100566367D03*
D13*
X208598252Y-95094529D03*
D10*
X211400638Y-100034633D03*
D12*
X221976500Y-80404200D03*
D13*
X218038788Y-78067081D03*
D10*
X216903462Y-80670067D03*
X227049538Y-80138333D03*
D13*
X224247152Y-75198229D03*
D10*
X229816662Y-99069467D03*
D12*
X234889700Y-98803600D03*
D10*
X239962738Y-98537733D03*
D13*
X230951988Y-96466481D03*
X237160352Y-93597629D03*
X227035452Y-36899829D03*
X220827088Y-39768681D03*
D12*
X224764800Y-42105800D03*
D10*
X219691762Y-42371667D03*
X229837838Y-41839933D03*
D13*
X245603888Y-57546281D03*
D10*
X244468562Y-60149267D03*
D12*
X249541600Y-59883400D03*
D13*
X251812252Y-54677429D03*
D10*
X254614638Y-59617533D03*
D13*
X208011552Y-37896829D03*
D10*
X210813938Y-42836933D03*
D13*
X201803188Y-40765681D03*
D10*
X200667862Y-43368667D03*
D12*
X205740900Y-43102800D03*
X202978900Y-81399800D03*
D10*
X208051938Y-81133933D03*
X197905862Y-81665667D03*
D13*
X205249552Y-76193829D03*
X199041188Y-79062681D03*
D10*
X263108462Y-97324767D03*
D12*
X268181500Y-97058900D03*
D13*
X264243788Y-94721781D03*
D10*
X273254538Y-96793033D03*
D13*
X270452152Y-91852929D03*
X213764452Y-56671429D03*
X207556088Y-59540281D03*
D10*
X216566838Y-61611533D03*
D12*
X211493800Y-61877400D03*
D10*
X206420762Y-62143267D03*
X246099738Y-79139933D03*
D13*
X237088988Y-77068681D03*
D12*
X241026700Y-79405800D03*
D10*
X235953662Y-79671667D03*
D13*
X243297352Y-74199829D03*
D10*
X257713162Y-40379067D03*
D13*
X258848488Y-37776081D03*
X265056852Y-34907229D03*
D12*
X262786200Y-40113200D03*
D10*
X267859238Y-39847333D03*
X263466162Y-59153667D03*
D13*
X264601488Y-56550681D03*
X270809852Y-53681829D03*
D10*
X273612238Y-58621933D03*
D12*
X268539200Y-58887800D03*
X260050600Y-78408800D03*
D10*
X265123638Y-78142933D03*
X254977562Y-78674667D03*
D13*
X262321252Y-73202829D03*
X256112888Y-76071681D03*
D10*
X310305338Y-75775133D03*
D13*
X301294588Y-73703881D03*
D10*
X300159262Y-76306867D03*
D13*
X307502952Y-70835029D03*
D12*
X305232300Y-76041000D03*
D10*
X292662438Y-57623533D03*
D13*
X289860052Y-52683429D03*
D12*
X287589400Y-57889400D03*
D13*
X283651688Y-55552281D03*
D10*
X282516362Y-58155267D03*
D13*
X284080752Y-33910229D03*
X277872388Y-36779081D03*
D12*
X281810100Y-39116200D03*
D10*
X276737062Y-39382067D03*
X286883138Y-38850333D03*
X238689262Y-41376067D03*
D13*
X246032952Y-35904229D03*
D12*
X243762300Y-41110200D03*
D10*
X248835338Y-40844333D03*
D13*
X239824588Y-38773081D03*
D10*
X274001462Y-77677667D03*
D13*
X281345152Y-72205829D03*
D10*
X284147538Y-77145933D03*
D12*
X279074500Y-77411800D03*
D13*
X275136788Y-75074681D03*
X305053588Y-54430681D03*
D10*
X314064338Y-56501933D03*
D13*
X311261952Y-51561829D03*
D10*
X303918262Y-57033667D03*
D12*
X308991300Y-56767800D03*
D10*
X302062500Y-99425000D03*
X302062500Y-104425000D03*
X302062500Y-101925000D03*
D11*
X309562500Y-96325000D03*
X309562500Y-107525000D03*
D10*
X316562500Y-104425000D03*
X316562500Y-99425000D03*
X167005000Y-102393700D03*
D13*
X158115000Y-99853700D03*
D10*
X156845000Y-102393700D03*
D12*
X161925000Y-102393700D03*
D13*
X164465000Y-97313700D03*
X177165000Y-99853700D03*
D10*
X175895000Y-102393700D03*
X186055000Y-102393700D03*
D12*
X180975000Y-102393700D03*
D13*
X183515000Y-97313700D03*
D10*
X163950000Y-61793700D03*
X163950000Y-66793700D03*
X163950000Y-64293700D03*
D11*
X171450000Y-69893700D03*
X171450000Y-58693700D03*
D10*
X178450000Y-66793700D03*
X178450000Y-61793700D03*
D13*
X54352186Y-33745695D03*
D10*
X46476762Y-38419933D03*
D13*
X47877955Y-35949881D03*
D12*
X51549800Y-38685800D03*
D10*
X56622838Y-38951667D03*
X75646738Y-39948667D03*
D13*
X73376086Y-34742695D03*
X66901855Y-36946881D03*
D10*
X65500662Y-39416933D03*
D12*
X70573700Y-39682800D03*
D13*
X70660855Y-56219981D03*
D10*
X69259662Y-58690033D03*
X79405738Y-59221767D03*
D13*
X77135086Y-54015795D03*
D12*
X74332700Y-58955900D03*
D13*
X51636955Y-55222981D03*
D12*
X55308800Y-57958900D03*
D10*
X50235762Y-57693033D03*
X60381838Y-58224767D03*
D13*
X58111186Y-53018795D03*
X89684655Y-57216981D03*
D12*
X93356500Y-59952900D03*
D10*
X98429538Y-60218767D03*
X88283462Y-59687033D03*
D13*
X96158886Y-55012795D03*
D10*
X117453438Y-61215767D03*
D12*
X112380400Y-60949900D03*
D13*
X115182786Y-56009795D03*
D10*
X107307362Y-60684033D03*
D13*
X108708555Y-58213981D03*
D10*
X58750662Y-77215433D03*
X68896738Y-77747167D03*
D13*
X60151855Y-74745381D03*
X66626086Y-72541195D03*
D12*
X63823700Y-77481300D03*
X131404300Y-61946900D03*
D13*
X127732455Y-59210981D03*
X134206686Y-57006795D03*
D10*
X126331262Y-61681033D03*
X136477338Y-62212767D03*
X37598938Y-37954667D03*
X27452862Y-37422933D03*
D12*
X32525900Y-37688800D03*
D13*
X28854055Y-34952881D03*
X35328286Y-32748695D03*
D10*
X113694538Y-41942667D03*
D12*
X108621500Y-41676800D03*
D13*
X111423886Y-36736695D03*
X104949655Y-38940881D03*
D10*
X103548462Y-41410933D03*
D12*
X120895400Y-80472300D03*
D13*
X123697786Y-75532195D03*
D10*
X115822362Y-80206433D03*
D13*
X117223555Y-77736381D03*
D10*
X125968438Y-80738167D03*
D13*
X123976655Y-39937981D03*
D10*
X122575462Y-42408033D03*
X132721538Y-42939767D03*
D12*
X127648500Y-42673900D03*
D13*
X130450886Y-37733795D03*
D12*
X37665900Y-76110400D03*
D10*
X42738938Y-76376267D03*
X32592862Y-75844533D03*
D13*
X40468286Y-71170295D03*
X33994055Y-73374481D03*
D12*
X82847600Y-78478300D03*
D10*
X77774562Y-78212433D03*
D13*
X79175755Y-75742381D03*
D10*
X87920638Y-78744167D03*
D13*
X85649986Y-73538195D03*
X92399986Y-35739695D03*
D10*
X84524562Y-40413933D03*
X94670638Y-40945667D03*
D13*
X85925755Y-37943881D03*
D12*
X89597600Y-40679800D03*
D10*
X106944538Y-79741167D03*
D13*
X104673886Y-74535195D03*
D10*
X96798462Y-79209433D03*
D12*
X101871500Y-79475300D03*
D13*
X98199655Y-76739381D03*
X136247455Y-78733381D03*
X142721686Y-76529195D03*
D12*
X139919300Y-81469300D03*
D10*
X144992338Y-81735167D03*
X134846262Y-81203433D03*
D13*
X132872455Y-97632681D03*
D10*
X141617338Y-100634467D03*
D13*
X139346686Y-95428495D03*
D12*
X136544300Y-100368600D03*
D10*
X131471262Y-100102733D03*
D12*
X108008500Y-98873100D03*
D10*
X113081538Y-99138967D03*
X102935462Y-98607233D03*
D13*
X110810886Y-93932995D03*
X104336655Y-96137181D03*
D10*
X38979938Y-57103167D03*
D13*
X36709286Y-51897195D03*
D12*
X33906900Y-56837300D03*
D13*
X30235055Y-54101381D03*
D10*
X28833862Y-56571433D03*
X79789638Y-97394167D03*
D13*
X71044755Y-94392381D03*
D10*
X69643562Y-96862433D03*
D13*
X77518986Y-92188195D03*
D12*
X74716600Y-97128300D03*
X305616300Y-37868600D03*
D13*
X307886952Y-32662629D03*
D10*
X310689338Y-37602733D03*
X300543262Y-38134467D03*
D13*
X301678588Y-35531481D03*
X232788352Y-55674429D03*
D12*
X230517700Y-60880400D03*
D10*
X225444662Y-61146267D03*
D13*
X226579988Y-58543281D03*
D10*
X235590738Y-60614533D03*
X190500000Y-29250000D03*
X190500000Y-35750000D03*
D14*
X171450000Y-19350000D03*
X168950000Y-19350000D03*
X173950000Y-19350000D03*
D15*
X156972000Y-40156400D03*
X159512000Y-40156400D03*
X162052000Y-40156400D03*
X164592000Y-40156400D03*
X167132000Y-40156400D03*
X169672000Y-40156400D03*
X172212000Y-40156400D03*
X174752000Y-40156400D03*
X177292000Y-40156400D03*
X179832000Y-40156400D03*
X182372000Y-40156400D03*
X184912000Y-40156400D03*
X184912000Y-24936400D03*
X182372000Y-24936400D03*
X179832000Y-24936400D03*
X177292000Y-24936400D03*
X174752000Y-24936400D03*
X172212000Y-24936400D03*
X169672000Y-24936400D03*
X167132000Y-24936400D03*
X164592000Y-24936400D03*
X162052000Y-24936400D03*
X159512000Y-24936400D03*
X156972000Y-24936400D03*
X154432000Y-24936400D03*
X154432000Y-40156400D03*
M02*
