M48
; DRILL file {KiCad (6.0.10)} date Sun Jan 29 02:40:01 2023
; FORMAT={-:-/ absolute / metric / decimal}
; #@! TF.CreationDate,2023-01-29T02:40:01+09:00
; #@! TF.GenerationSoftware,Kicad,Pcbnew,(6.0.10)
; #@! TF.FileFunction,NonPlated,1,2,NPTH
FMAT,2
METRIC
; #@! TA.AperFunction,NonPlated,NPTH,ComponentDrill
T1C2.000
; #@! TA.AperFunction,NonPlated,NPTH,ComponentDrill
T2C3.000
; #@! TA.AperFunction,NonPlated,NPTH,ComponentDrill
T3C4.000
%
G90
G05
T1
X27.453Y-37.423
X28.834Y-56.571
X32.593Y-75.845
X37.599Y-37.955
X38.98Y-57.103
X42.739Y-76.376
X46.477Y-38.42
X50.236Y-57.693
X56.623Y-38.952
X58.751Y-77.215
X60.382Y-58.225
X65.501Y-39.417
X68.897Y-77.747
X69.26Y-58.69
X69.644Y-96.862
X75.647Y-39.949
X77.775Y-78.212
X79.406Y-59.222
X79.79Y-97.394
X84.525Y-40.414
X87.921Y-78.744
X88.283Y-59.687
X94.671Y-40.946
X96.798Y-79.209
X98.43Y-60.219
X102.935Y-98.607
X103.548Y-41.411
X106.945Y-79.741
X107.307Y-60.684
X113.082Y-99.139
X113.695Y-41.943
X115.822Y-80.206
X117.453Y-61.216
X122.575Y-42.408
X125.968Y-80.738
X126.331Y-61.681
X131.471Y-100.103
X132.722Y-42.94
X134.846Y-81.203
X136.477Y-62.213
X141.617Y-100.634
X144.992Y-81.735
X156.845Y-102.394
X167.005Y-102.394
X175.895Y-102.394
X186.055Y-102.394
X197.906Y-81.666
X200.668Y-43.369
X201.255Y-100.566
X206.421Y-62.143
X208.052Y-81.134
X210.814Y-42.837
X211.401Y-100.035
X216.567Y-61.612
X216.903Y-80.67
X219.692Y-42.372
X225.445Y-61.146
X227.05Y-80.138
X229.817Y-99.069
X229.838Y-41.84
X235.591Y-60.615
X235.954Y-79.672
X238.689Y-41.376
X239.963Y-98.538
X244.469Y-60.149
X246.1Y-79.14
X248.835Y-40.844
X254.615Y-59.618
X254.978Y-78.675
X257.713Y-40.379
X263.108Y-97.325
X263.466Y-59.154
X265.124Y-78.143
X267.859Y-39.847
X273.255Y-96.793
X273.612Y-58.622
X274.001Y-77.678
X276.737Y-39.382
X282.516Y-58.155
X284.148Y-77.146
X286.883Y-38.85
X292.662Y-57.624
X300.159Y-76.307
X300.543Y-38.134
X303.918Y-57.034
X310.305Y-75.775
X310.689Y-37.603
X314.064Y-56.502
T2
X28.854Y-34.953
X30.235Y-54.101
X33.994Y-73.374
X35.328Y-32.749
X36.709Y-51.897
X40.468Y-71.17
X47.878Y-35.95
X51.637Y-55.223
X54.352Y-33.746
X58.111Y-53.019
X60.152Y-74.745
X66.626Y-72.541
X66.902Y-36.947
X70.661Y-56.22
X71.045Y-94.392
X73.376Y-34.743
X77.135Y-54.016
X77.519Y-92.188
X79.176Y-75.742
X85.65Y-73.538
X85.926Y-37.944
X89.685Y-57.217
X92.4Y-35.74
X96.159Y-55.013
X98.2Y-76.739
X104.337Y-96.137
X104.674Y-74.535
X104.95Y-38.941
X108.709Y-58.214
X110.811Y-93.933
X111.424Y-36.737
X115.183Y-56.01
X117.224Y-77.736
X123.698Y-75.532
X123.977Y-39.938
X127.732Y-59.211
X130.451Y-37.734
X132.872Y-97.633
X134.207Y-57.007
X136.247Y-78.733
X139.347Y-95.428
X142.722Y-76.529
X158.115Y-99.854
X164.465Y-97.314
X177.165Y-99.854
X183.515Y-97.314
X199.041Y-79.063
X201.803Y-40.766
X202.39Y-97.963
X205.25Y-76.194
X207.556Y-59.54
X208.012Y-37.897
X208.598Y-95.095
X213.764Y-56.671
X218.039Y-78.067
X220.827Y-39.769
X224.247Y-75.198
X226.58Y-58.543
X227.035Y-36.9
X230.952Y-96.466
X232.788Y-55.674
X237.089Y-77.069
X237.16Y-93.598
X239.825Y-38.773
X243.297Y-74.2
X245.604Y-57.546
X246.033Y-35.904
X251.812Y-54.677
X256.113Y-76.072
X258.848Y-37.776
X262.321Y-73.203
X264.244Y-94.722
X264.601Y-56.551
X265.057Y-34.907
X270.452Y-91.853
X270.81Y-53.682
X275.137Y-75.075
X277.872Y-36.779
X281.345Y-72.206
X283.652Y-55.552
X284.081Y-33.91
X289.86Y-52.683
X301.295Y-73.704
X301.679Y-35.531
X305.054Y-54.431
X307.503Y-70.835
X307.887Y-32.663
X311.262Y-51.562
T3
X32.526Y-37.689
X33.907Y-56.837
X37.666Y-76.11
X51.55Y-38.686
X55.309Y-57.959
X63.824Y-77.481
X70.574Y-39.683
X74.333Y-58.956
X74.717Y-97.128
X82.848Y-78.478
X89.598Y-40.68
X93.356Y-59.953
X101.871Y-79.475
X108.008Y-98.873
X108.621Y-41.677
X112.38Y-60.95
X120.895Y-80.472
X127.648Y-42.674
X131.404Y-61.947
X136.544Y-100.369
X139.919Y-81.469
X161.925Y-102.394
X180.975Y-102.394
X202.979Y-81.4
X205.741Y-43.103
X206.328Y-100.3
X211.494Y-61.877
X221.976Y-80.404
X224.765Y-42.106
X230.518Y-60.88
X234.89Y-98.804
X241.027Y-79.406
X243.762Y-41.11
X249.542Y-59.883
X260.051Y-78.409
X262.786Y-40.113
X268.181Y-97.059
X268.539Y-58.888
X279.075Y-77.412
X281.81Y-39.116
X287.589Y-57.889
X305.232Y-76.041
X305.616Y-37.869
X308.991Y-56.768
T0
M30
