G04 #@! TF.GenerationSoftware,KiCad,Pcbnew,(6.0.10)*
G04 #@! TF.CreationDate,2023-01-29T02:39:10+09:00*
G04 #@! TF.ProjectId,GT40,47543430-2e6b-4696-9361-645f70636258,rev?*
G04 #@! TF.SameCoordinates,Original*
G04 #@! TF.FileFunction,Copper,L1,Top*
G04 #@! TF.FilePolarity,Positive*
%FSLAX46Y46*%
G04 Gerber Fmt 4.6, Leading zero omitted, Abs format (unit mm)*
G04 Created by KiCad (PCBNEW (6.0.10)) date 2023-01-29 02:39:10*
%MOMM*%
%LPD*%
G01*
G04 APERTURE LIST*
G04 #@! TA.AperFunction,ComponentPad*
%ADD10C,2.000000*%
G04 #@! TD*
G04 #@! TA.AperFunction,ComponentPad*
%ADD11R,3.200000X2.500000*%
G04 #@! TD*
G04 #@! TA.AperFunction,ComponentPad*
%ADD12O,1.500000X1.500000*%
G04 #@! TD*
G04 #@! TA.AperFunction,ComponentPad*
%ADD13C,1.524000*%
G04 #@! TD*
G04 #@! TA.AperFunction,ViaPad*
%ADD14C,0.800000*%
G04 #@! TD*
G04 #@! TA.AperFunction,Conductor*
%ADD15C,0.250000*%
G04 #@! TD*
G04 #@! TA.AperFunction,Conductor*
%ADD16C,0.500000*%
G04 #@! TD*
G04 APERTURE END LIST*
D10*
X25837500Y-99425000D03*
X25837500Y-104425000D03*
X25837500Y-101925000D03*
D11*
X33337500Y-107525000D03*
X33337500Y-96325000D03*
D10*
X40337500Y-104425000D03*
X40337500Y-99425000D03*
X302062500Y-99425000D03*
X302062500Y-104425000D03*
X302062500Y-101925000D03*
D11*
X309562500Y-96325000D03*
X309562500Y-107525000D03*
D10*
X316562500Y-104425000D03*
X316562500Y-99425000D03*
X163950000Y-61793700D03*
X163950000Y-66793700D03*
X163950000Y-64293700D03*
D11*
X171450000Y-69893700D03*
X171450000Y-58693700D03*
D10*
X178450000Y-66793700D03*
X178450000Y-61793700D03*
X190500000Y-29250000D03*
X190500000Y-35750000D03*
D12*
X171450000Y-19350000D03*
X168950000Y-19350000D03*
X173950000Y-19350000D03*
D13*
X156972000Y-40156400D03*
X159512000Y-40156400D03*
X162052000Y-40156400D03*
X164592000Y-40156400D03*
X167132000Y-40156400D03*
X169672000Y-40156400D03*
X172212000Y-40156400D03*
X174752000Y-40156400D03*
X177292000Y-40156400D03*
X179832000Y-40156400D03*
X182372000Y-40156400D03*
X184912000Y-40156400D03*
X184912000Y-24936400D03*
X182372000Y-24936400D03*
X179832000Y-24936400D03*
X177292000Y-24936400D03*
X174752000Y-24936400D03*
X172212000Y-24936400D03*
X169672000Y-24936400D03*
X167132000Y-24936400D03*
X164592000Y-24936400D03*
X162052000Y-24936400D03*
X159512000Y-24936400D03*
X156972000Y-24936400D03*
X154432000Y-24936400D03*
X154432000Y-40156400D03*
D14*
X50475800Y-48343300D03*
X104754100Y-50548100D03*
X211681600Y-51972400D03*
X245090200Y-51538900D03*
X226198000Y-51972400D03*
X67494300Y-47942100D03*
X302986600Y-50810000D03*
X124556500Y-50845700D03*
X260229200Y-51538900D03*
X87640100Y-51143300D03*
X32539800Y-47952800D03*
X280428200Y-50810000D03*
X162452900Y-70610000D03*
X287944600Y-67750300D03*
X52215100Y-66650000D03*
X33387900Y-66650000D03*
X71007300Y-67006700D03*
X269018900Y-67750300D03*
X109490400Y-70610000D03*
X250000200Y-68308100D03*
X230757200Y-69724800D03*
X130908500Y-70610000D03*
X89803500Y-67517000D03*
X306950100Y-67750300D03*
X211956900Y-70689000D03*
X60400200Y-86795300D03*
X241217100Y-88234100D03*
X36879200Y-86795300D03*
X102181700Y-89142600D03*
X222461700Y-89435000D03*
X260494500Y-87264800D03*
X206077500Y-89784000D03*
X117817000Y-88724400D03*
X151053000Y-89784000D03*
X278315700Y-87749400D03*
X305248500Y-85064500D03*
X72315500Y-83348100D03*
X69537600Y-80503000D03*
X72841600Y-49904800D03*
X76729900Y-49904800D03*
X113848600Y-81742400D03*
X102340600Y-88006000D03*
X105226900Y-45046900D03*
X102641200Y-47262300D03*
X118326400Y-65191500D03*
X116441000Y-68455200D03*
X125534100Y-87870300D03*
X129182200Y-86099600D03*
X216577400Y-65752700D03*
X210891600Y-69795000D03*
X208796700Y-86408600D03*
X206392300Y-85071500D03*
X222824600Y-49716700D03*
X222091100Y-45607700D03*
X240156700Y-63747900D03*
X238426200Y-63442800D03*
X238101200Y-47685600D03*
X244446300Y-43714600D03*
X246340400Y-67504000D03*
X252451600Y-61648400D03*
X241692000Y-82028900D03*
X237645500Y-87036300D03*
X260370700Y-47724200D03*
X263470800Y-42717000D03*
X257329800Y-81917100D03*
X257516700Y-86024400D03*
X286390500Y-49977100D03*
X282720400Y-49977100D03*
X284523100Y-66320600D03*
X294645700Y-66320600D03*
X287513600Y-79895000D03*
X284319100Y-78946100D03*
X195655500Y-64293700D03*
X73858900Y-47902200D03*
X102823400Y-44055700D03*
X220261200Y-73971400D03*
X203297100Y-73971400D03*
X179400000Y-35800000D03*
X88303800Y-44055700D03*
X197956100Y-46769700D03*
X204246800Y-46521600D03*
X60997200Y-61273100D03*
X211247900Y-53674100D03*
X72442000Y-61273100D03*
X282402300Y-61601100D03*
X68025000Y-80566000D03*
X144186700Y-87930600D03*
X124613400Y-89779800D03*
X164592000Y-26368900D03*
X272940100Y-61601100D03*
X112388600Y-91248600D03*
X67480500Y-85513300D03*
X63584400Y-61273100D03*
X104469400Y-90672000D03*
X85957500Y-87221300D03*
X89524900Y-61610200D03*
X56387400Y-46011400D03*
X164635700Y-53674100D03*
X63200300Y-46946100D03*
X58410100Y-46861500D03*
X66454000Y-47059200D03*
X51761200Y-46928700D03*
X85642800Y-42636100D03*
X76260900Y-42512300D03*
X115179500Y-48934900D03*
X123932700Y-50025000D03*
X137971100Y-53536300D03*
X139707900Y-51799500D03*
X61285600Y-62652100D03*
X75661800Y-62463700D03*
X57925000Y-81263500D03*
X58071100Y-61929100D03*
X58415300Y-83014100D03*
X63008300Y-63629300D03*
X86789100Y-82490000D03*
X98889200Y-86791900D03*
X145017200Y-86022300D03*
X199825000Y-89044500D03*
X208543700Y-84074700D03*
X217025300Y-84074700D03*
X275703500Y-85228900D03*
X264974300Y-85461500D03*
X265892700Y-66507000D03*
X281260700Y-66539300D03*
X220822400Y-71789200D03*
X208691400Y-71789200D03*
X36288900Y-23784100D03*
X201803500Y-61793700D03*
X35547500Y-96901800D03*
X168991500Y-89044500D03*
X146093800Y-88015600D03*
X42655700Y-99707600D03*
X220578400Y-58730000D03*
X49276600Y-81358700D03*
X212601300Y-82499500D03*
X200102100Y-83767800D03*
X56749400Y-83029400D03*
X56749400Y-22037500D03*
X213419100Y-60108700D03*
X56722900Y-81264100D03*
X234996700Y-47685600D03*
X237619700Y-45021700D03*
X242140700Y-61982300D03*
X64363600Y-47220100D03*
X229857600Y-82981300D03*
X66690400Y-31852000D03*
X223810600Y-26073800D03*
X64300400Y-44458000D03*
X96301400Y-88316600D03*
X227071700Y-87565500D03*
X241805000Y-64336500D03*
X78147200Y-80542100D03*
X109138200Y-87280800D03*
X86652400Y-53681000D03*
X265676200Y-82745700D03*
X262419800Y-63247400D03*
X242643800Y-23090000D03*
X79017100Y-67495500D03*
X258120700Y-48043000D03*
X83581900Y-53681000D03*
X254509400Y-43718000D03*
X97691800Y-87655300D03*
X89904000Y-30575200D03*
X169113200Y-30575200D03*
X89908200Y-70701400D03*
X255433900Y-81057700D03*
X260185700Y-61013300D03*
X164658400Y-71731000D03*
X113214600Y-50665500D03*
X278195300Y-46734000D03*
X273164400Y-33046600D03*
X180947700Y-33046600D03*
X102110100Y-66208400D03*
X108780300Y-69884800D03*
X102069700Y-45438200D03*
X275201800Y-43367100D03*
X176866300Y-55337000D03*
X140322600Y-54770000D03*
X130952200Y-54770000D03*
X299048700Y-54770000D03*
X175369200Y-61793700D03*
X175732500Y-66539900D03*
X287621600Y-51955000D03*
X164613700Y-51387300D03*
X198926500Y-102698600D03*
X157400000Y-34200000D03*
X160600000Y-29500000D03*
D15*
X245090200Y-51538900D02*
X226631500Y-51538900D01*
X245090200Y-51538900D02*
X260229200Y-51538900D01*
X260958100Y-50810000D02*
X260229200Y-51538900D01*
X288619900Y-50810000D02*
X302986600Y-50810000D01*
X280822000Y-51203800D02*
X288226100Y-51203800D01*
X124011600Y-51390600D02*
X124556500Y-50845700D01*
X105299000Y-51390600D02*
X124011600Y-51390600D01*
X156442700Y-50845700D02*
X124556500Y-50845700D01*
X32539800Y-47952800D02*
X50085300Y-47952800D01*
X104754100Y-50845700D02*
X104754100Y-50548100D01*
X67033500Y-48402900D02*
X67494300Y-47942100D01*
X67494300Y-47942100D02*
X70695500Y-51143300D01*
X178948000Y-51972400D02*
X167132000Y-40156400D01*
X280428200Y-50810000D02*
X280822000Y-51203800D01*
X70695500Y-51143300D02*
X87640100Y-51143300D01*
X50085300Y-47952800D02*
X50475800Y-48343300D01*
X211681600Y-51972400D02*
X178948000Y-51972400D01*
X50475800Y-48343300D02*
X50535400Y-48402900D01*
X226198000Y-51972400D02*
X211681600Y-51972400D01*
X104456500Y-51143300D02*
X104754100Y-50845700D01*
X104754100Y-50845700D02*
X105299000Y-51390600D01*
X226631500Y-51538900D02*
X226198000Y-51972400D01*
X288226100Y-51203800D02*
X288619900Y-50810000D01*
X50535400Y-48402900D02*
X67033500Y-48402900D01*
X280428200Y-50810000D02*
X260958100Y-50810000D01*
X87640100Y-51143300D02*
X104456500Y-51143300D01*
X167132000Y-40156400D02*
X156442700Y-50845700D01*
X89056900Y-66770400D02*
X71243600Y-66770400D01*
X162452900Y-70610000D02*
X164348800Y-72505900D01*
X250000200Y-68308100D02*
X268461100Y-68308100D01*
X92896500Y-70610000D02*
X109490400Y-70610000D01*
X206462300Y-72505900D02*
X208279200Y-70689000D01*
X248583500Y-69724800D02*
X250000200Y-68308100D01*
X164348800Y-72505900D02*
X206462300Y-72505900D01*
X52571800Y-67006700D02*
X71007300Y-67006700D01*
X269018900Y-67750300D02*
X287944600Y-67750300D01*
X268461100Y-68308100D02*
X269018900Y-67750300D01*
X229793000Y-70689000D02*
X230757200Y-69724800D01*
X230757200Y-69724800D02*
X248583500Y-69724800D01*
X130908500Y-70610000D02*
X162452900Y-70610000D01*
X211956900Y-70689000D02*
X229793000Y-70689000D01*
X287944600Y-67750300D02*
X306950100Y-67750300D01*
X89803500Y-67517000D02*
X92896500Y-70610000D01*
X208279200Y-70689000D02*
X211956900Y-70689000D01*
X89803500Y-67517000D02*
X89056900Y-66770400D01*
X71243600Y-66770400D02*
X71007300Y-67006700D01*
X52215100Y-66650000D02*
X52571800Y-67006700D01*
X33387900Y-66650000D02*
X52215100Y-66650000D01*
X109490400Y-70610000D02*
X130908500Y-70610000D01*
X206077500Y-89784000D02*
X206426500Y-89435000D01*
X305248500Y-85064500D02*
X281000600Y-85064500D01*
X206077500Y-89784000D02*
X151053000Y-89784000D01*
X117817000Y-88724400D02*
X103011300Y-88724400D01*
X260494500Y-87749400D02*
X278315700Y-87749400D01*
X260494500Y-87749400D02*
X260494500Y-87264800D01*
X241217100Y-88234100D02*
X260009800Y-88234100D01*
X103011300Y-88724400D02*
X102593100Y-89142600D01*
X260009800Y-88234100D02*
X260494500Y-87749400D01*
X102593100Y-89142600D02*
X102181700Y-89142600D01*
X240016200Y-89435000D02*
X241217100Y-88234100D01*
X222461700Y-89435000D02*
X240016200Y-89435000D01*
X36879200Y-86795300D02*
X60400200Y-86795300D01*
X281000600Y-85064500D02*
X278315700Y-87749400D01*
X206426500Y-89435000D02*
X222461700Y-89435000D01*
X72315500Y-83348100D02*
X69537600Y-80570200D01*
X69537600Y-80570200D02*
X69537600Y-80503000D01*
X72841600Y-49904800D02*
X76729900Y-49904800D01*
X102340600Y-88006000D02*
X109438500Y-88006000D01*
X109438500Y-88006000D02*
X113848600Y-83595900D01*
X113848600Y-83595900D02*
X113848600Y-81742400D01*
X102641200Y-47262300D02*
X104856600Y-45046900D01*
X104856600Y-45046900D02*
X105226900Y-45046900D01*
X116441000Y-68455200D02*
X116441000Y-67076900D01*
X116441000Y-67076900D02*
X118326400Y-65191500D01*
X127411500Y-87870300D02*
X129182200Y-86099600D01*
X125534100Y-87870300D02*
X127411500Y-87870300D01*
X216577400Y-66632300D02*
X213414700Y-69795000D01*
X216577400Y-65752700D02*
X216577400Y-66632300D01*
X213414700Y-69795000D02*
X210891600Y-69795000D01*
X207729400Y-86408600D02*
X206392300Y-85071500D01*
X208796700Y-86408600D02*
X207729400Y-86408600D01*
X222824600Y-46341200D02*
X222091100Y-45607700D01*
X222824600Y-49716700D02*
X222824600Y-46341200D01*
X238731300Y-63747900D02*
X238426200Y-63442800D01*
X240156700Y-63747900D02*
X238731300Y-63747900D01*
X238101200Y-47685600D02*
X242072200Y-43714600D01*
X242072200Y-43714600D02*
X244446300Y-43714600D01*
X246340400Y-67504000D02*
X246340400Y-65308300D01*
X246340400Y-65308300D02*
X248143800Y-63504900D01*
X250595100Y-63504900D02*
X252451600Y-61648400D01*
X248143800Y-63504900D02*
X250595100Y-63504900D01*
X237645500Y-87036300D02*
X237645500Y-84989700D01*
X237645500Y-84989700D02*
X240606300Y-82028900D01*
X240606300Y-82028900D02*
X241692000Y-82028900D01*
X260370700Y-47724200D02*
X260370700Y-44718600D01*
X262372300Y-42717000D02*
X263470800Y-42717000D01*
X260370700Y-44718600D02*
X262372300Y-42717000D01*
X257516700Y-82104000D02*
X257329800Y-81917100D01*
X257516700Y-86024400D02*
X257516700Y-82104000D01*
X282720400Y-49977100D02*
X286390500Y-49977100D01*
X284523100Y-66320600D02*
X294645700Y-66320600D01*
X285268000Y-79895000D02*
X284319100Y-78946100D01*
X287513600Y-79895000D02*
X285268000Y-79895000D01*
D16*
X204246800Y-46521600D02*
X198204200Y-46521600D01*
X164592000Y-40156400D02*
X162052000Y-40156400D01*
X179450000Y-35750000D02*
X190500000Y-35750000D01*
X77705400Y-44055700D02*
X73858900Y-47902200D01*
X179400000Y-35800000D02*
X179450000Y-35750000D01*
X163950000Y-64293700D02*
X195655500Y-64293700D01*
X88303800Y-44055700D02*
X77705400Y-44055700D01*
X203297100Y-73971400D02*
X220261200Y-73971400D01*
X88303800Y-44055700D02*
X102823400Y-44055700D01*
X198204200Y-46521600D02*
X197956100Y-46769700D01*
X112388600Y-91248600D02*
X123144600Y-91248600D01*
X63200300Y-46946100D02*
X62265600Y-46011400D01*
X72779100Y-61610200D02*
X89524900Y-61610200D01*
X69188500Y-87221300D02*
X67480500Y-85513300D01*
X85957500Y-87221300D02*
X69188500Y-87221300D01*
X142375000Y-89742300D02*
X124650900Y-89742300D01*
X164592000Y-24936400D02*
X164592000Y-26368900D01*
X124650900Y-89742300D02*
X124613400Y-89779800D01*
X164635700Y-53674100D02*
X211247900Y-53674100D01*
X67480500Y-81110500D02*
X67480500Y-85513300D01*
X89408200Y-90672000D02*
X104469400Y-90672000D01*
X63584400Y-61273100D02*
X60997200Y-61273100D01*
X72442000Y-61273100D02*
X63584400Y-61273100D01*
X62265600Y-46011400D02*
X56387400Y-46011400D01*
X144186700Y-87930600D02*
X142375000Y-89742300D01*
X72442000Y-61273100D02*
X72779100Y-61610200D01*
X68025000Y-80566000D02*
X67480500Y-81110500D01*
X272940100Y-61601100D02*
X282402300Y-61601100D01*
X85957500Y-87221300D02*
X89408200Y-90672000D01*
X123144600Y-91248600D02*
X124613400Y-89779800D01*
D15*
X59501400Y-47952800D02*
X58410100Y-46861500D01*
X65560400Y-47952800D02*
X59501400Y-47952800D01*
X66454000Y-47059200D02*
X65560400Y-47952800D01*
X85943200Y-43361200D02*
X86001400Y-43303000D01*
X106959400Y-43303000D02*
X108856800Y-45200400D01*
X151928000Y-45200400D02*
X156972000Y-40156400D01*
X85342500Y-43361200D02*
X85943200Y-43361200D01*
X54406300Y-46928700D02*
X58090300Y-43244700D01*
X85226000Y-43244700D02*
X85342500Y-43361200D01*
X51761200Y-46928700D02*
X54406300Y-46928700D01*
X86001400Y-43303000D02*
X106959400Y-43303000D01*
X108856800Y-45200400D02*
X151928000Y-45200400D01*
X58090300Y-43244700D02*
X85226000Y-43244700D01*
X85642800Y-42636100D02*
X76384700Y-42636100D01*
X76384700Y-42636100D02*
X76260900Y-42512300D01*
X115179500Y-48934900D02*
X116269600Y-50025000D01*
X116269600Y-50025000D02*
X123932700Y-50025000D01*
X137971100Y-53536300D02*
X139707900Y-51799500D01*
X61474000Y-62463700D02*
X75661800Y-62463700D01*
X61285600Y-62652100D02*
X61474000Y-62463700D01*
X58071100Y-61929100D02*
X59771300Y-63629300D01*
X59771300Y-63629300D02*
X63008300Y-63629300D01*
X57925000Y-82523800D02*
X58415300Y-83014100D01*
X57925000Y-81263500D02*
X57925000Y-82523800D01*
X98889200Y-86791900D02*
X94587300Y-82490000D01*
X94587300Y-82490000D02*
X86789100Y-82490000D01*
X145017200Y-86022300D02*
X196802800Y-86022300D01*
X196802800Y-86022300D02*
X199825000Y-89044500D01*
X208543700Y-84074700D02*
X217025300Y-84074700D01*
X275703500Y-85228900D02*
X265206900Y-85228900D01*
X265206900Y-85228900D02*
X264974300Y-85461500D01*
X265925000Y-66539300D02*
X265892700Y-66507000D01*
X281260700Y-66539300D02*
X265925000Y-66539300D01*
X220822400Y-71789200D02*
X208691400Y-71789200D01*
X178450000Y-61793700D02*
X201803500Y-61793700D01*
X165979700Y-23784100D02*
X36288900Y-23784100D01*
X37814300Y-96901800D02*
X35547500Y-96901800D01*
X40337500Y-99425000D02*
X37814300Y-96901800D01*
X167132000Y-24936400D02*
X165979700Y-23784100D01*
X25837500Y-99425000D02*
X27181100Y-100768600D01*
X138480600Y-90317400D02*
X147451100Y-90317400D01*
X147451100Y-90317400D02*
X148724000Y-89044500D01*
X102703900Y-100768600D02*
X107665000Y-95807500D01*
X132990500Y-95807500D02*
X138480600Y-90317400D01*
X27181100Y-100768600D02*
X102703900Y-100768600D01*
X148724000Y-89044500D02*
X168991500Y-89044500D01*
X107665000Y-95807500D02*
X132990500Y-95807500D01*
X42655700Y-99707600D02*
X97594800Y-99707600D01*
X97594800Y-99707600D02*
X107834900Y-89467500D01*
X121876100Y-89467500D02*
X122344900Y-88998700D01*
X141892200Y-89142600D02*
X143831000Y-87203800D01*
X125076800Y-89142600D02*
X141892200Y-89142600D01*
X107834900Y-89467500D02*
X121876100Y-89467500D01*
X145282000Y-87203800D02*
X146093800Y-88015600D01*
X124932900Y-88998700D02*
X125076800Y-89142600D01*
X143831000Y-87203800D02*
X145282000Y-87203800D01*
X122344900Y-88998700D02*
X124932900Y-88998700D01*
X56628300Y-81358700D02*
X56749400Y-81479800D01*
X208560500Y-82499500D02*
X212601300Y-82499500D01*
X56722900Y-81264100D02*
X56628300Y-81358700D01*
X169672000Y-24936400D02*
X166773100Y-22037500D01*
X200102100Y-83767800D02*
X207292200Y-83767800D01*
X56628300Y-81358700D02*
X49276600Y-81358700D01*
X213419100Y-60108700D02*
X214797800Y-58730000D01*
X56749400Y-81479800D02*
X56749400Y-83029400D01*
X207292200Y-83767800D02*
X208560500Y-82499500D01*
X166773100Y-22037500D02*
X56749400Y-22037500D01*
X214797800Y-58730000D02*
X220578400Y-58730000D01*
X223810600Y-26073800D02*
X173349400Y-26073800D01*
X173349400Y-26073800D02*
X173349400Y-27428200D01*
X96301400Y-88316600D02*
X90499200Y-88316600D01*
X168925600Y-31852000D02*
X66690400Y-31852000D01*
X64300400Y-44458000D02*
X64363600Y-44521200D01*
X227071700Y-85767200D02*
X227071700Y-87565500D01*
X173349400Y-26073800D02*
X172212000Y-24936400D01*
X64363600Y-44521200D02*
X64363600Y-47220100D01*
X90499200Y-88316600D02*
X83548700Y-81366100D01*
X173349400Y-27428200D02*
X168925600Y-31852000D01*
X237619700Y-45062600D02*
X237619700Y-45021700D01*
X83548700Y-81366100D02*
X78971200Y-81366100D01*
X242140700Y-64000800D02*
X241805000Y-64336500D01*
X229857600Y-82981300D02*
X227071700Y-85767200D01*
X78971200Y-81366100D02*
X78147200Y-80542100D01*
X234996700Y-47685600D02*
X237619700Y-45062600D01*
X242140700Y-61982300D02*
X242140700Y-64000800D01*
X258046200Y-48043000D02*
X258120700Y-48043000D01*
X79017100Y-67495500D02*
X82223000Y-70701400D01*
X97691800Y-87655300D02*
X99239900Y-87655300D01*
X176598400Y-23090000D02*
X242643800Y-23090000D01*
X99614400Y-87280800D02*
X109138200Y-87280800D01*
X89904000Y-30575200D02*
X169113200Y-30575200D01*
X82223000Y-70701400D02*
X89908200Y-70701400D01*
X174752000Y-24936400D02*
X176598400Y-23090000D01*
X265676200Y-82745700D02*
X263988200Y-81057700D01*
X254509400Y-44506200D02*
X258046200Y-48043000D01*
X83581900Y-53681000D02*
X86652400Y-53681000D01*
X99239900Y-87655300D02*
X99614400Y-87280800D01*
X262419800Y-63247400D02*
X260185700Y-61013300D01*
X254509400Y-43718000D02*
X254509400Y-44506200D01*
X263988200Y-81057700D02*
X255433900Y-81057700D01*
X104390100Y-48149200D02*
X102480200Y-48149200D01*
X275201800Y-43367100D02*
X278195300Y-46360600D01*
X273164400Y-33046600D02*
X180947700Y-33046600D01*
X113214600Y-50665500D02*
X106906400Y-50665500D01*
X162812200Y-69884800D02*
X164658400Y-71731000D01*
X108780300Y-69884800D02*
X162812200Y-69884800D01*
X102480200Y-48149200D02*
X101899900Y-47568900D01*
X101899900Y-47568900D02*
X101899900Y-45608000D01*
X278195300Y-46360600D02*
X278195300Y-46734000D01*
X105786500Y-69884800D02*
X102110100Y-66208400D01*
X101899900Y-45608000D02*
X102069700Y-45438200D01*
X106906400Y-50665500D02*
X104390100Y-48149200D01*
X108780300Y-69884800D02*
X105786500Y-69884800D01*
X211244300Y-55053500D02*
X213123700Y-53174100D01*
X176582800Y-55053500D02*
X176866300Y-55053500D01*
X176866300Y-55053500D02*
X176866300Y-55337000D01*
X130952200Y-54770000D02*
X140322600Y-54770000D01*
X213123700Y-53174100D02*
X242852800Y-53174100D01*
X272184900Y-51850600D02*
X273816800Y-53482500D01*
X242852800Y-53174100D02*
X243246800Y-52780100D01*
X268486900Y-52780100D02*
X269416400Y-51850600D01*
X273816800Y-53482500D02*
X286470900Y-53482500D01*
X176866300Y-55053500D02*
X211244300Y-55053500D01*
X176299300Y-54770000D02*
X176582800Y-55053500D01*
X243246800Y-52780100D02*
X268486900Y-52780100D01*
X269416400Y-51850600D02*
X272184900Y-51850600D01*
X287758400Y-54770000D02*
X299048700Y-54770000D01*
X286470900Y-53482500D02*
X287758400Y-54770000D01*
X140322600Y-54770000D02*
X176299300Y-54770000D01*
X163950000Y-61793700D02*
X175369200Y-61793700D01*
X164203800Y-66539900D02*
X163950000Y-66793700D01*
X175732500Y-66539900D02*
X164203800Y-66539900D01*
X165940600Y-52714200D02*
X164613700Y-51387300D01*
X242451300Y-52714200D02*
X165940600Y-52714200D01*
X287621600Y-51955000D02*
X273151100Y-51955000D01*
X273151100Y-51955000D02*
X272596600Y-51400500D01*
X269229900Y-51400500D02*
X268327900Y-52302500D01*
X268327900Y-52302500D02*
X242863000Y-52302500D01*
X272596600Y-51400500D02*
X269229900Y-51400500D01*
X242863000Y-52302500D02*
X242451300Y-52714200D01*
X302062500Y-104425000D02*
X300336100Y-102698600D01*
X300336100Y-102698600D02*
X198926500Y-102698600D01*
X162052000Y-24936400D02*
X162052000Y-28048000D01*
X179350000Y-29250000D02*
X190500000Y-29250000D01*
X157400000Y-34200000D02*
X174400000Y-34200000D01*
X162052000Y-28048000D02*
X160600000Y-29500000D01*
X174400000Y-34200000D02*
X179350000Y-29250000D01*
M02*
