G04 #@! TF.GenerationSoftware,KiCad,Pcbnew,(6.0.10)*
G04 #@! TF.CreationDate,2023-01-30T20:25:39+09:00*
G04 #@! TF.ProjectId,GT40,47543430-2e6b-4696-9361-645f70636258,rev?*
G04 #@! TF.SameCoordinates,Original*
G04 #@! TF.FileFunction,Profile,NP*
%FSLAX46Y46*%
G04 Gerber Fmt 4.6, Leading zero omitted, Abs format (unit mm)*
G04 Created by KiCad (PCBNEW (6.0.10)) date 2023-01-30 20:25:39*
%MOMM*%
%LPD*%
G01*
G04 APERTURE LIST*
G04 #@! TA.AperFunction,Profile*
%ADD10C,0.100000*%
G04 #@! TD*
G04 #@! TA.AperFunction,Profile*
%ADD11C,0.150000*%
G04 #@! TD*
G04 #@! TA.AperFunction,Profile*
%ADD12C,0.010000*%
G04 #@! TD*
G04 APERTURE END LIST*
D10*
X328625000Y-20250000D02*
G75*
G03*
X325625000Y-17250000I-3000000J0D01*
G01*
X17275000Y-17250000D02*
G75*
G03*
X14275000Y-20250000I0J-3000000D01*
G01*
X14275000Y-113050000D02*
G75*
G03*
X17275000Y-116050000I3000000J0D01*
G01*
X14275000Y-20250000D02*
X14275000Y-113050000D01*
X325625000Y-17250000D02*
X17275000Y-17250000D01*
X325625000Y-116050000D02*
G75*
G03*
X328625000Y-113050000I0J3000000D01*
G01*
X328625000Y-113050000D02*
X328625000Y-20250000D01*
X17275000Y-116050000D02*
X325625000Y-116050000D01*
D11*
X26287500Y-94875000D02*
X40387500Y-94875000D01*
X26287500Y-108975000D02*
X26287500Y-94875000D01*
X40387500Y-94875000D02*
X40387500Y-108975000D01*
X40387500Y-108975000D02*
X26287500Y-108975000D01*
X212998933Y-92891176D02*
X213736870Y-106971853D01*
X199656193Y-107709790D02*
X198918256Y-93629113D01*
X198918256Y-93629113D02*
X212998933Y-92891176D01*
X213736870Y-106971853D02*
X199656193Y-107709790D01*
X228647839Y-72994909D02*
X229385776Y-87075586D01*
X229385776Y-87075586D02*
X215305099Y-87813523D01*
X214567162Y-73732846D02*
X228647839Y-72994909D01*
X215305099Y-87813523D02*
X214567162Y-73732846D01*
X242299032Y-105474974D02*
X228218355Y-106212911D01*
X241561095Y-91394297D02*
X242299032Y-105474974D01*
X228218355Y-106212911D02*
X227480418Y-92132234D01*
X227480418Y-92132234D02*
X241561095Y-91394297D01*
X232174072Y-48777171D02*
X218093395Y-49515108D01*
X218093395Y-49515108D02*
X217355458Y-35434431D01*
X231436135Y-34696494D02*
X232174072Y-48777171D01*
X217355458Y-35434431D02*
X231436135Y-34696494D01*
X242870261Y-67292750D02*
X242132324Y-53212073D01*
X256950938Y-66554813D02*
X242870261Y-67292750D01*
X256213001Y-52474136D02*
X256950938Y-66554813D01*
X242132324Y-53212073D02*
X256213001Y-52474136D01*
X213150178Y-49774171D02*
X199069501Y-50512108D01*
X198331564Y-36431431D02*
X212412241Y-35693494D01*
X212412241Y-35693494D02*
X213150178Y-49774171D01*
X199069501Y-50512108D02*
X198331564Y-36431431D01*
X210388206Y-88071206D02*
X196307529Y-88809143D01*
X196307529Y-88809143D02*
X195569592Y-74728466D01*
X209650269Y-73990529D02*
X210388206Y-88071206D01*
X195569592Y-74728466D02*
X209650269Y-73990529D01*
X261510167Y-104468161D02*
X260772230Y-90387484D01*
X260772230Y-90387484D02*
X274852907Y-89649547D01*
X275590844Y-103730224D02*
X261510167Y-104468161D01*
X274852907Y-89649547D02*
X275590844Y-103730224D01*
X218165214Y-54468136D02*
X218903151Y-68548813D01*
X204822474Y-69286750D02*
X204084537Y-55206073D01*
X218903151Y-68548813D02*
X204822474Y-69286750D01*
X204084537Y-55206073D02*
X218165214Y-54468136D01*
X234355313Y-86815143D02*
X233617376Y-72734466D01*
X248435990Y-86077206D02*
X234355313Y-86815143D01*
X233617376Y-72734466D02*
X247698053Y-71996529D01*
X247698053Y-71996529D02*
X248435990Y-86077206D01*
X255376918Y-33441810D02*
X269457595Y-32703873D01*
X269457595Y-32703873D02*
X270195532Y-46784550D01*
X256114855Y-47522487D02*
X255376918Y-33441810D01*
X270195532Y-46784550D02*
X256114855Y-47522487D01*
X261129891Y-52216453D02*
X275210568Y-51478516D01*
X275948505Y-65559193D02*
X261867828Y-66297130D01*
X275210568Y-51478516D02*
X275948505Y-65559193D01*
X261867828Y-66297130D02*
X261129891Y-52216453D01*
X266721947Y-70999529D02*
X267459884Y-85080206D01*
X252641270Y-71737466D02*
X266721947Y-70999529D01*
X253379207Y-85818143D02*
X252641270Y-71737466D01*
X267459884Y-85080206D02*
X253379207Y-85818143D01*
X312641629Y-82712331D02*
X298560952Y-83450268D01*
X297823015Y-69369591D02*
X311903692Y-68631654D01*
X311903692Y-68631654D02*
X312641629Y-82712331D01*
X298560952Y-83450268D02*
X297823015Y-69369591D01*
X294260786Y-50480136D02*
X294998723Y-64560813D01*
X280918046Y-65298750D02*
X280180109Y-51218073D01*
X294998723Y-64560813D02*
X280918046Y-65298750D01*
X280180109Y-51218073D02*
X294260786Y-50480136D01*
X288481489Y-31706873D02*
X289219426Y-45787550D01*
X275138749Y-46525487D02*
X274400812Y-32444810D01*
X289219426Y-45787550D02*
X275138749Y-46525487D01*
X274400812Y-32444810D02*
X288481489Y-31706873D01*
X250433705Y-33700873D02*
X251171642Y-47781550D01*
X237090965Y-48519487D02*
X236353028Y-34438810D01*
X251171642Y-47781550D02*
X237090965Y-48519487D01*
X236353028Y-34438810D02*
X250433705Y-33700873D01*
X272403100Y-84821143D02*
X271665163Y-70740466D01*
X286483777Y-84083206D02*
X272403100Y-84821143D01*
X285745840Y-70002529D02*
X286483777Y-84083206D01*
X271665163Y-70740466D02*
X285745840Y-70002529D01*
X301581987Y-50096449D02*
X315662664Y-49358512D01*
X315662664Y-49358512D02*
X316400601Y-63439189D01*
X316400601Y-63439189D02*
X302319924Y-64177126D01*
X302319924Y-64177126D02*
X301581987Y-50096449D01*
D12*
X17175000Y-21550000D02*
G75*
G03*
X17175000Y-21550000I-1100000J0D01*
G01*
X17175000Y-66650000D02*
G75*
G03*
X17175000Y-66650000I-1100000J0D01*
G01*
X17175000Y-111750000D02*
G75*
G03*
X17175000Y-111750000I-1100000J0D01*
G01*
X327925000Y-21550000D02*
G75*
G03*
X327925000Y-21550000I-1100000J0D01*
G01*
X327925000Y-66650000D02*
G75*
G03*
X327925000Y-66650000I-1100000J0D01*
G01*
X327925000Y-111750000D02*
G75*
G03*
X327925000Y-111750000I-1100000J0D01*
G01*
D11*
X316612500Y-108975000D02*
X302512500Y-108975000D01*
X302512500Y-108975000D02*
X302512500Y-94875000D01*
X302512500Y-94875000D02*
X316612500Y-94875000D01*
X316612500Y-94875000D02*
X316612500Y-108975000D01*
X168975000Y-95343750D02*
X168975000Y-109443750D01*
X154875000Y-109443750D02*
X154875000Y-95343750D01*
X154875000Y-95343750D02*
X168975000Y-95343750D01*
X168975000Y-109443750D02*
X154875000Y-109443750D01*
X173925000Y-95343750D02*
X188025000Y-95343750D01*
X188025000Y-109443750D02*
X173925000Y-109443750D01*
X188025000Y-95343750D02*
X188025000Y-109443750D01*
X173925000Y-109443750D02*
X173925000Y-95343750D01*
X178500000Y-57243750D02*
X178500000Y-71343750D01*
X164400000Y-57243750D02*
X178500000Y-57243750D01*
X164400000Y-71343750D02*
X164400000Y-57243750D01*
X178500000Y-71343750D02*
X164400000Y-71343750D01*
X58959101Y-32014401D02*
X58221164Y-46095078D01*
X44140487Y-45357141D02*
X44878424Y-31276464D01*
X58221164Y-46095078D02*
X44140487Y-45357141D01*
X44878424Y-31276464D02*
X58959101Y-32014401D01*
X63164376Y-46354141D02*
X63902313Y-32273464D01*
X77245053Y-47092078D02*
X63164376Y-46354141D01*
X63902313Y-32273464D02*
X77982990Y-33011401D01*
X77982990Y-33011401D02*
X77245053Y-47092078D01*
X81741964Y-52284547D02*
X81004027Y-66365224D01*
X66923350Y-65627287D02*
X67661287Y-51546610D01*
X67661287Y-51546610D02*
X81741964Y-52284547D01*
X81004027Y-66365224D02*
X66923350Y-65627287D01*
X48637394Y-50549610D02*
X62718071Y-51287547D01*
X61980134Y-65368224D02*
X47899457Y-64630287D01*
X62718071Y-51287547D02*
X61980134Y-65368224D01*
X47899457Y-64630287D02*
X48637394Y-50549610D01*
X85947242Y-66624287D02*
X86685179Y-52543610D01*
X86685179Y-52543610D02*
X100765856Y-53281547D01*
X100027919Y-67362224D02*
X85947242Y-66624287D01*
X100765856Y-53281547D02*
X100027919Y-67362224D01*
X119789749Y-54278544D02*
X119051812Y-68359221D01*
X119051812Y-68359221D02*
X104971135Y-67621284D01*
X105709072Y-53540607D02*
X119789749Y-54278544D01*
X104971135Y-67621284D02*
X105709072Y-53540607D01*
X70495080Y-84890613D02*
X56414403Y-84152676D01*
X57152340Y-70071999D02*
X71233017Y-70809936D01*
X56414403Y-84152676D02*
X57152340Y-70071999D01*
X71233017Y-70809936D02*
X70495080Y-84890613D01*
X124732964Y-54537607D02*
X138813641Y-55275544D01*
X138813641Y-55275544D02*
X138075704Y-69356221D01*
X138075704Y-69356221D02*
X123995027Y-68618284D01*
X123995027Y-68618284D02*
X124732964Y-54537607D01*
X39935205Y-31017401D02*
X39197268Y-45098078D01*
X25116591Y-44360141D02*
X25854528Y-30279464D01*
X39197268Y-45098078D02*
X25116591Y-44360141D01*
X25854528Y-30279464D02*
X39935205Y-31017401D01*
X101950102Y-34267464D02*
X116030779Y-35005401D01*
X115292842Y-49086078D02*
X101212165Y-48348141D01*
X116030779Y-35005401D02*
X115292842Y-49086078D01*
X101212165Y-48348141D02*
X101950102Y-34267464D01*
X128304695Y-73800936D02*
X127566758Y-87881613D01*
X127566758Y-87881613D02*
X113486081Y-87143676D01*
X114224018Y-73062999D02*
X128304695Y-73800936D01*
X113486081Y-87143676D02*
X114224018Y-73062999D01*
X120977173Y-35264634D02*
X135057850Y-36002571D01*
X135057850Y-36002571D02*
X134319913Y-50083248D01*
X134319913Y-50083248D02*
X120239236Y-49345311D01*
X120239236Y-49345311D02*
X120977173Y-35264634D01*
X30256551Y-82781801D02*
X30994488Y-68701124D01*
X44337228Y-83519738D02*
X30256551Y-82781801D01*
X30994488Y-68701124D02*
X45075165Y-69439061D01*
X45075165Y-69439061D02*
X44337228Y-83519738D01*
X89518973Y-85887613D02*
X75438296Y-85149676D01*
X90256910Y-71806936D02*
X89518973Y-85887613D01*
X76176233Y-71068999D02*
X90256910Y-71806936D01*
X75438296Y-85149676D02*
X76176233Y-71068999D01*
X82926206Y-33270464D02*
X97006883Y-34008401D01*
X82188269Y-47351141D02*
X82926206Y-33270464D01*
X97006883Y-34008401D02*
X96268946Y-48089078D01*
X96268946Y-48089078D02*
X82188269Y-47351141D01*
X94462192Y-86146676D02*
X95200129Y-72065999D01*
X108542869Y-86884613D02*
X94462192Y-86146676D01*
X109280806Y-72803936D02*
X108542869Y-86884613D01*
X95200129Y-72065999D02*
X109280806Y-72803936D01*
X132509974Y-88140676D02*
X133247911Y-74059999D01*
X133247911Y-74059999D02*
X147328588Y-74797936D01*
X146590651Y-88878613D02*
X132509974Y-88140676D01*
X147328588Y-74797936D02*
X146590651Y-88878613D01*
X143215664Y-107777884D02*
X129134987Y-107039947D01*
X129134987Y-107039947D02*
X129872924Y-92959270D01*
X129872924Y-92959270D02*
X143953601Y-93697207D01*
X143953601Y-93697207D02*
X143215664Y-107777884D01*
X101337085Y-91463770D02*
X115417762Y-92201707D01*
X115417762Y-92201707D02*
X114679825Y-106282384D01*
X114679825Y-106282384D02*
X100599148Y-105544447D01*
X100599148Y-105544447D02*
X101337085Y-91463770D01*
X27235518Y-49427985D02*
X41316195Y-50165922D01*
X40578258Y-64246599D02*
X26497581Y-63508662D01*
X26497581Y-63508662D02*
X27235518Y-49427985D01*
X41316195Y-50165922D02*
X40578258Y-64246599D01*
X68045273Y-89719020D02*
X82125950Y-90456957D01*
X82125950Y-90456957D02*
X81388013Y-104537634D01*
X81388013Y-104537634D02*
X67307336Y-103799697D01*
X67307336Y-103799697D02*
X68045273Y-89719020D01*
X312287679Y-30459244D02*
X313025616Y-44539921D01*
X298944939Y-45277858D02*
X298207002Y-31197181D01*
X298207002Y-31197181D02*
X312287679Y-30459244D01*
X313025616Y-44539921D02*
X298944939Y-45277858D01*
X223846368Y-68289750D02*
X223108431Y-54209073D01*
X237927045Y-67551813D02*
X223846368Y-68289750D01*
X237189108Y-53471136D02*
X237927045Y-67551813D01*
X223108431Y-54209073D02*
X237189108Y-53471136D01*
M02*
